<svg width="1920" height="651" viewBox="0 0 1920 651" fill="none" xmlns="http://www.w3.org/2000/svg">
<rect width="1920" height="651" fill="#212121"/>
<path d="M46 80C46 66.1929 57.1929 55 71 55H1745C1758.81 55 1770 66.1929 1770 80V466C1770 479.807 1758.81 491 1745 491H71C57.1929 491 46 479.807 46 466V80Z" fill="#2C2C2C"/>
<rect y="95" width="127" height="20" rx="10" fill="#484848"/>
<rect x="1793" y="571" width="127" height="20" rx="10" fill="#2A2A2A"/>
<rect x="1793" y="515" width="127" height="20" rx="10" fill="#2B2B2B"/>
<rect y="153" width="127" height="20" rx="10" fill="#484848"/>
<rect x="1694" y="430" width="46" height="46" rx="23" fill="#505050"/>
<rect x="1584" y="430" width="46" height="46" rx="23" fill="#505050"/>
<rect x="1834" y="49" width="46" height="46" rx="23" fill="#24B47E"/>
<rect x="1639" y="430" width="46" height="46" rx="23" fill="#505050"/>
<rect y="571" width="1051" height="20" rx="10" fill="#2A2A2A"/>
</svg>
