<svg width="1920" height="651" viewBox="0 0 1920 651" fill="none" xmlns="http://www.w3.org/2000/svg">
<rect width="1920" height="651" fill="#212121"/>
<path d="M2 185C2 171.193 13.1929 160 27 160H287C300.807 160 312 171.193 312 185V438C312 451.807 300.807 463 287 463H27C13.1929 463 2 451.807 2 438V185Z" fill="#2C2C2C"/>
<path d="M382 181C382 167.193 393.193 156 407 156H667C680.807 156 692 167.193 692 181V434C692 447.807 680.807 459 667 459H407C393.193 459 382 447.807 382 434V181Z" fill="#2C2C2C"/>
<rect x="2" y="181" width="127" height="20" rx="10" fill="#484848"/>
<rect x="179" y="330" width="127" height="20" rx="10" fill="#484848"/>
<rect x="179" y="362" width="127" height="20" rx="10" fill="#484848"/>
<rect x="782" y="423" width="346" height="42" rx="21" fill="#484848"/>
<rect x="392" y="412" width="285" height="26" rx="13" fill="#484848"/>
<rect x="392" y="288" width="285" height="42" rx="21" fill="#484848"/>
<rect x="392" y="223" width="285" height="42" rx="21" fill="#484848"/>
<rect x="272" y="425" width="20" height="20" rx="10" fill="#484848"/>
<rect x="214" y="425" width="20" height="20" rx="10" fill="#484848"/>
<rect x="243" y="425" width="20" height="20" rx="10" fill="#484848"/>
<rect x="1547" y="181" width="239" height="107" rx="25" fill="#484848"/>
<rect x="1150" y="160" width="346" height="188" rx="25" fill="#2C2C2C"/>
<rect x="1165" y="288" width="148" height="20" rx="10" fill="#484848"/>
<rect x="1453" y="320" width="20" height="20" rx="10" fill="#484848"/>
<rect x="782" y="160" width="346" height="202" rx="25" fill="#2C2C2C"/>
<rect x="797" y="181" width="148" height="20" rx="10" fill="#484848"/>
<rect x="1085" y="213" width="20" height="20" rx="10" fill="#484848"/>
<rect x="797" y="382" width="20" height="20" rx="10" fill="#484848"/>
<rect x="849" y="382" width="20" height="20" rx="10" fill="#484848"/>
<rect x="823" y="382" width="20" height="20" rx="10" fill="#484848"/>
<rect x="1410" y="171" width="20" height="20" rx="10" fill="#484848"/>
<rect x="1462" y="171" width="20" height="20" rx="10" fill="#484848"/>
<rect x="1436" y="171" width="20" height="20" rx="10" fill="#484848"/>
</svg>
