<svg width="333" height="402" viewBox="0 0 333 402" fill="none" xmlns="http://www.w3.org/2000/svg">
<rect width="93" height="93" rx="25" fill="url(#paint0_linear_61_28)"/>
<rect x="240" y="61" width="93" height="93" rx="25" fill="url(#paint1_linear_61_28)"/>
<rect x="120" y="26" width="93" height="93" rx="25" fill="url(#paint2_linear_61_28)"/>
<rect y="124" width="93" height="93" rx="25" fill="url(#paint3_linear_61_28)"/>
<rect x="240" y="185" width="93" height="93" rx="25" fill="url(#paint4_linear_61_28)"/>
<rect x="120" y="150" width="93" height="93" rx="25" fill="url(#paint5_linear_61_28)"/>
<rect y="248" width="93" height="93" rx="25" fill="url(#paint6_linear_61_28)"/>
<rect x="240" y="309" width="93" height="93" rx="25" fill="url(#paint7_linear_61_28)"/>
<rect x="120" y="274" width="93" height="93" rx="25" fill="url(#paint8_linear_61_28)"/>
<defs>
<linearGradient id="paint0_linear_61_28" x1="46.5" y1="0" x2="46.5" y2="93" gradientUnits="userSpaceOnUse">
<stop offset="0.359375" stop-color="#24B47E"/>
<stop offset="1" stop-color="#00FF9F" stop-opacity="0.85"/>
</linearGradient>
<linearGradient id="paint1_linear_61_28" x1="286.5" y1="61" x2="286.5" y2="154" gradientUnits="userSpaceOnUse">
<stop offset="0.359375" stop-color="#24B47E"/>
<stop offset="1" stop-color="#00FF9F" stop-opacity="0.85"/>
</linearGradient>
<linearGradient id="paint2_linear_61_28" x1="166.5" y1="26" x2="166.5" y2="119" gradientUnits="userSpaceOnUse">
<stop offset="0.359375" stop-color="#24B47E"/>
<stop offset="1" stop-color="#00FF9F" stop-opacity="0.85"/>
</linearGradient>
<linearGradient id="paint3_linear_61_28" x1="46.5" y1="124" x2="46.5" y2="217" gradientUnits="userSpaceOnUse">
<stop offset="0.359375" stop-color="#24B47E"/>
<stop offset="1" stop-color="#00FF9F" stop-opacity="0.85"/>
</linearGradient>
<linearGradient id="paint4_linear_61_28" x1="286.5" y1="185" x2="286.5" y2="278" gradientUnits="userSpaceOnUse">
<stop offset="0.359375" stop-color="#24B47E"/>
<stop offset="1" stop-color="#00FF9F" stop-opacity="0.85"/>
</linearGradient>
<linearGradient id="paint5_linear_61_28" x1="166.5" y1="150" x2="166.5" y2="243" gradientUnits="userSpaceOnUse">
<stop offset="0.359375" stop-color="#24B47E"/>
<stop offset="1" stop-color="#00FF9F" stop-opacity="0.85"/>
</linearGradient>
<linearGradient id="paint6_linear_61_28" x1="46.5" y1="248" x2="46.5" y2="341" gradientUnits="userSpaceOnUse">
<stop offset="0.359375" stop-color="#24B47E"/>
<stop offset="1" stop-color="#00FF9F" stop-opacity="0.85"/>
</linearGradient>
<linearGradient id="paint7_linear_61_28" x1="286.5" y1="309" x2="286.5" y2="402" gradientUnits="userSpaceOnUse">
<stop offset="0.359375" stop-color="#24B47E"/>
<stop offset="1" stop-color="#00FF9F" stop-opacity="0.85"/>
</linearGradient>
<linearGradient id="paint8_linear_61_28" x1="166.5" y1="274" x2="166.5" y2="367" gradientUnits="userSpaceOnUse">
<stop offset="0.359375" stop-color="#24B47E"/>
<stop offset="1" stop-color="#00FF9F" stop-opacity="0.85"/>
</linearGradient>
</defs>
</svg>
