<svg width="1128" height="207" viewBox="0 0 1128 207" fill="none" xmlns="http://www.w3.org/2000/svg">
<path d="M369.82 54.3672L394.137 51.0469L394.82 114.23L399.41 115.012L436.129 49.9727L457.418 62.5703C453.707 70.5781 449.052 78.5859 443.453 86.5938L431.148 103.781L423.727 113.254C421.383 116.184 419.202 118.69 417.184 120.773C422.327 126.047 426.168 130.116 428.707 132.98C441.533 147.954 450.68 159.966 456.148 169.016L436.129 183.566L402.34 131.613L394.039 135.422L392.379 178L370.602 179.953L369.82 54.3672ZM383.785 140.012C383.785 140.077 383.785 140.109 383.785 140.109C383.85 140.109 383.883 140.077 383.883 140.012H383.785ZM540.23 185.031C513.408 182.297 492.379 178.228 477.145 172.824C474.345 171.783 472.49 165.793 471.578 154.855C470.797 144.829 471.643 136.138 474.117 128.781C475.159 125.721 476.396 124.029 477.828 123.703C483.948 122.076 490.393 120.904 497.164 120.188L517.477 117.941L517.086 104.172C509.99 102.805 502.926 101.73 495.895 100.949C488.928 100.103 481.995 99.1263 475.094 98.0195L480.27 76.6328L496.773 79.0742C511.878 81.2878 523.889 83.9896 532.809 87.1797C537.105 88.7422 539.254 91.8997 539.254 96.6523L539.645 150.168L518.844 152.219L518.258 135.52L512.691 136.594C506.441 137.635 500.484 138.938 494.82 140.5C494.104 143.951 493.746 146.815 493.746 149.094C493.746 152.414 493.876 154.986 494.137 156.809C503.316 158.892 517.477 161.008 536.617 163.156L544.625 164.035L540.23 185.031ZM564.059 102.219L563.863 84.1523L584.664 82.0039L588.082 96.8477L603.023 80.4414H614.645L619.527 103.293C619.527 103.293 614.417 104.4 604.195 106.613C599.312 107.655 594.267 108.794 589.059 110.031L587.691 176.828L565.621 178.781L564.059 102.219ZM638.277 173.215C635.087 172.564 633.134 169.732 632.418 164.719C631.246 156.255 630.66 147.271 630.66 137.766C630.66 121.815 631.995 106.841 634.664 92.8438C635.315 89.4583 636.943 87.3099 639.547 86.3984L649.312 84.0547C659.794 81.5156 669.918 79.6276 679.684 78.3906V38.3516L702.34 34.1523L702.926 79.1719L700.875 147.824L680.27 149.777L679.488 99.582C671.611 100.168 664.221 101.763 657.32 104.367C655.432 116.021 654.488 125.656 654.488 133.273C654.488 144.146 654.749 151.47 655.27 155.246C663.408 157.395 673.108 159.217 684.371 160.715C695.699 162.212 703.479 163.319 707.711 164.035L701.656 185.031C676.396 181.06 660.803 178.456 654.879 177.219C649.02 175.982 643.486 174.647 638.277 173.215ZM752.438 120.188C752.438 135.878 753.251 149.484 754.879 161.008L774.117 160.031C777.633 146.099 779.391 132.492 779.391 119.211C779.391 113.872 779.033 109.12 778.316 104.953C774.41 103 760.608 102.023 736.91 102.023H731.93C730.562 102.023 729.065 102.089 727.438 102.219L731.637 79.5625C732.743 79.4974 733.753 79.4323 734.664 79.3672C735.641 79.237 736.617 79.1719 737.594 79.1719L740.523 78.9766C741.5 78.9766 744.234 78.9766 748.727 78.9766C761.617 78.9766 775.745 80.7018 791.109 84.1523C795.992 85.3893 798.987 87.5703 800.094 90.6953C801.786 95.513 802.633 103.358 802.633 114.23C802.633 134.087 799.605 153.293 793.551 171.848C793.03 173.54 792.411 174.973 791.695 176.145C791.044 177.316 789.872 178.065 788.18 178.391C786.487 178.781 784.501 179.139 782.223 179.465C779.944 179.79 777.698 180.083 775.484 180.344C770.667 180.799 767.346 181.027 765.523 181.027C763.701 181.027 761.747 180.995 759.664 180.93C757.581 180.93 755.302 180.865 752.828 180.734C746.318 180.409 741.923 179.823 739.645 178.977C737.366 178.195 735.803 176.828 734.957 174.875C734.176 172.922 733.395 169.797 732.613 165.5C730.79 155.474 729.879 144.048 729.879 131.223C729.879 126.34 730.009 121.49 730.27 116.672L752.438 112.277V120.188ZM833.59 139.426L820.113 85.2266L844.723 79.3672L855.172 134.445L856.93 159.836L861.52 160.031L876.363 107.004L871.578 84.8359L897.555 80.4414L914.156 159.641L918.355 159.152C919.592 151.275 920.764 143.234 921.871 135.031L929 80.4414L954.391 83.5664L950.289 105.637C945.667 131.158 939.612 155.279 932.125 178L900.582 179.562L888.57 136.789H886.324L875.387 178L842.965 179.562L833.59 139.426Z" fill="#15C884"/>
<rect x="182" y="22" width="37.7027" height="37.709" rx="12" fill="url(#paint0_linear_107_65)"/>
<rect x="279.297" y="46.7339" width="37.7027" height="37.709" rx="12" fill="url(#paint1_linear_107_65)"/>
<rect x="230.649" y="32.5422" width="37.7027" height="37.709" rx="12" fill="url(#paint2_linear_107_65)"/>
<rect x="182" y="72.2786" width="37.7027" height="37.709" rx="12" fill="url(#paint3_linear_107_65)"/>
<rect x="279.297" y="97.0125" width="37.7027" height="37.709" rx="12" fill="url(#paint4_linear_107_65)"/>
<rect x="230.649" y="82.8208" width="37.7027" height="37.709" rx="12" fill="url(#paint5_linear_107_65)"/>
<rect x="182" y="122.557" width="37.7027" height="37.709" rx="12" fill="url(#paint6_linear_107_65)"/>
<rect x="279.297" y="147.291" width="37.7027" height="37.709" rx="12" fill="url(#paint7_linear_107_65)"/>
<rect x="230.649" y="133.1" width="37.7027" height="37.709" rx="12" fill="url(#paint8_linear_107_65)"/>
<defs>
<linearGradient id="paint0_linear_107_65" x1="200.851" y1="22" x2="200.851" y2="59.709" gradientUnits="userSpaceOnUse">
<stop offset="0.359375" stop-color="#24B47E"/>
<stop offset="1" stop-color="#00FF9F" stop-opacity="0.85"/>
</linearGradient>
<linearGradient id="paint1_linear_107_65" x1="298.149" y1="46.7339" x2="298.149" y2="84.4428" gradientUnits="userSpaceOnUse">
<stop offset="0.359375" stop-color="#24B47E"/>
<stop offset="1" stop-color="#00FF9F" stop-opacity="0.85"/>
</linearGradient>
<linearGradient id="paint2_linear_107_65" x1="249.5" y1="32.5422" x2="249.5" y2="70.2512" gradientUnits="userSpaceOnUse">
<stop offset="0.359375" stop-color="#24B47E"/>
<stop offset="1" stop-color="#00FF9F" stop-opacity="0.85"/>
</linearGradient>
<linearGradient id="paint3_linear_107_65" x1="200.851" y1="72.2786" x2="200.851" y2="109.988" gradientUnits="userSpaceOnUse">
<stop offset="0.359375" stop-color="#24B47E"/>
<stop offset="1" stop-color="#00FF9F" stop-opacity="0.85"/>
</linearGradient>
<linearGradient id="paint4_linear_107_65" x1="298.149" y1="97.0125" x2="298.149" y2="134.721" gradientUnits="userSpaceOnUse">
<stop offset="0.359375" stop-color="#24B47E"/>
<stop offset="1" stop-color="#00FF9F" stop-opacity="0.85"/>
</linearGradient>
<linearGradient id="paint5_linear_107_65" x1="249.5" y1="82.8208" x2="249.5" y2="120.53" gradientUnits="userSpaceOnUse">
<stop offset="0.359375" stop-color="#24B47E"/>
<stop offset="1" stop-color="#00FF9F" stop-opacity="0.85"/>
</linearGradient>
<linearGradient id="paint6_linear_107_65" x1="200.851" y1="122.557" x2="200.851" y2="160.266" gradientUnits="userSpaceOnUse">
<stop offset="0.359375" stop-color="#24B47E"/>
<stop offset="1" stop-color="#00FF9F" stop-opacity="0.85"/>
</linearGradient>
<linearGradient id="paint7_linear_107_65" x1="298.149" y1="147.291" x2="298.149" y2="185" gradientUnits="userSpaceOnUse">
<stop offset="0.359375" stop-color="#24B47E"/>
<stop offset="1" stop-color="#00FF9F" stop-opacity="0.85"/>
</linearGradient>
<linearGradient id="paint8_linear_107_65" x1="249.5" y1="133.1" x2="249.5" y2="170.809" gradientUnits="userSpaceOnUse">
<stop offset="0.359375" stop-color="#24B47E"/>
<stop offset="1" stop-color="#00FF9F" stop-opacity="0.85"/>
</linearGradient>
</defs>
</svg>
